<svg width="314" height="639" viewBox="0 0 314 639" fill="none" xmlns="http://www.w3.org/2000/svg">
<path d="M311.294 163.717H312.406C313.02 163.717 313.517 164.217 313.517 164.834V237.762C313.517 238.379 313.02 238.878 312.406 238.878H311.294V163.717Z" fill="#303030"/>
<path d="M2.22266 254.506L1.11089 254.506C0.496874 254.506 -0.000880198 254.006 -0.000880144 253.39L-0.000876321 209.484C-0.000876268 208.867 0.496878 208.368 1.11089 208.368L2.22266 208.368L2.22266 254.506Z" fill="#303030"/>
<path d="M2.22266 193.484L1.11089 193.484C0.496874 193.484 -0.000880198 192.984 -0.000880144 192.368L-0.000876321 148.462C-0.000876268 147.845 0.496878 147.346 1.11089 147.346L2.22266 147.346L2.22266 193.484Z" fill="#333333"/>
<path d="M2.22266 125.021L1.11089 125.021C0.496878 125.021 -0.000877337 124.521 -0.000877283 123.904L-0.000875404 102.323C-0.00087535 101.707 0.496879 101.207 1.11089 101.207L2.22266 101.207L2.22266 125.021Z" fill="#333333"/>
<path fill-rule="evenodd" clip-rule="evenodd" d="M4.58058 33.4236C2.22266 40.7098 2.22266 49.713 2.22266 67.7195V570.778C2.22266 588.785 2.22266 597.788 4.58058 605.074C9.3461 619.8 20.8451 631.345 35.5118 636.13C42.7688 638.498 51.7358 638.498 69.6698 638.498H243.846C261.78 638.498 270.747 638.498 278.004 636.13C292.671 631.345 304.17 619.8 308.936 605.074C311.294 597.788 311.294 588.785 311.294 570.778V67.7194C311.294 49.713 311.294 40.7098 308.936 33.4236C304.17 18.6976 292.671 7.15221 278.004 2.36745C270.747 0 261.78 0 243.846 0H69.6698C51.7358 0 42.7688 0 35.5118 2.36745C20.8451 7.15221 9.3461 18.6976 4.58058 33.4236ZM80.7881 18.2322V21.5809L80.841 21.5793L80.7878 21.953C80.7878 30.7894 87.9223 37.9526 96.7231 37.9526H216.794C225.595 37.9526 232.729 30.7894 232.729 21.953L232.676 21.5793L232.729 21.5809V18.2322C232.729 15.9717 234.554 14.1392 236.805 14.1392L246.352 14.1392C261.276 14.1392 268.738 14.1392 274.69 16.3971C284.044 19.9461 291.428 27.36 294.963 36.7521C297.212 42.7274 297.212 50.2197 297.212 65.2041V573.294C297.212 588.278 297.212 595.77 294.963 601.746C291.428 611.138 284.044 618.552 274.69 622.101C268.738 624.358 261.276 624.358 246.352 624.358H67.165C52.2408 624.358 44.7787 624.358 38.8273 622.101C29.473 618.552 22.0889 611.138 18.5542 601.746C16.3054 595.77 16.3054 588.278 16.3054 573.294V65.2041C16.3054 50.2197 16.3054 42.7274 18.5542 36.7521C22.0889 27.36 29.473 19.9461 38.8273 16.3971C44.7787 14.1392 52.2408 14.1392 67.165 14.1392L76.7116 14.1392C78.963 14.1392 80.7881 15.9717 80.7881 18.2322Z" fill="#333333"/>
<path fill-rule="evenodd" clip-rule="evenodd" d="M244.144 1.48831H69.3739C51.6581 1.48831 42.9759 1.49749 35.9704 3.78291C21.7549 8.42045 10.6098 19.6106 5.99091 33.8835C3.71468 40.9173 3.70553 49.6344 3.70553 67.4217V571.076C3.70553 588.863 3.71468 597.58 5.99091 604.614C10.6098 618.887 21.7549 630.077 35.9704 634.715C42.9759 637 51.6581 637.009 69.3739 637.009H244.144C261.859 637.009 270.541 637 277.547 634.715C291.762 630.077 302.908 618.887 307.527 604.614C309.803 597.58 309.812 588.863 309.812 571.076V67.4217C309.812 49.6344 309.803 40.9173 307.527 33.8835C302.908 19.6106 291.762 8.42045 277.547 3.78291C270.541 1.49749 261.859 1.48831 244.144 1.48831ZM5.28601 33.6535C2.96436 40.8276 2.96436 49.6923 2.96436 67.4217V571.076C2.96436 588.805 2.96436 597.67 5.28601 604.844C9.97821 619.344 21.3003 630.711 35.7414 635.422C42.8867 637.753 51.7158 637.753 69.3739 637.753H244.144C261.802 637.753 270.631 637.753 277.776 635.422C292.217 630.711 303.539 619.344 308.231 604.844C310.553 597.67 310.553 588.805 310.553 571.076V67.4217C310.553 49.6923 310.553 40.8276 308.231 33.6535C303.539 19.1541 292.217 7.78631 277.776 3.07517C270.631 0.744141 261.802 0.744141 244.144 0.744141H69.3739C51.7158 0.744141 42.8867 0.744141 35.7414 3.07517C21.3003 7.78631 9.97821 19.1541 5.28601 33.6535Z" fill="#303030"/>
<path fill-rule="evenodd" clip-rule="evenodd" d="M8.10672 34.5735C5.93018 41.2992 5.93018 49.6099 5.93018 66.2312V572.267C5.93018 588.888 5.93018 597.199 8.10672 603.924C12.5057 617.518 23.1201 628.175 36.6586 632.591C43.3574 634.777 51.6346 634.777 68.1891 634.777H245.33C261.885 634.777 270.162 634.777 276.861 632.591C290.399 628.175 301.014 617.518 305.413 603.924C307.589 597.199 307.589 588.888 307.589 572.267V66.2312C307.589 49.6099 307.589 41.2992 305.413 34.5735C301.014 20.9803 290.399 10.323 276.861 5.90628C270.162 3.72095 261.885 3.72095 245.33 3.72095H68.1891C51.6346 3.72095 43.3574 3.72095 36.6586 5.90628C23.1201 10.323 12.5057 20.9803 8.10672 34.5735ZM80.7888 18.2323V21.581L80.8418 21.5794L80.7886 21.9531C80.7886 30.7894 87.9231 37.9527 96.7239 37.9527H216.795C225.596 37.9527 232.73 30.7894 232.73 21.9531L232.677 21.5794L232.73 21.581V18.2323C232.73 15.9718 234.555 14.1393 236.806 14.1393L246.353 14.1393C261.277 14.1393 268.739 14.1393 274.69 16.3972C284.045 19.9462 291.429 27.3601 294.964 36.7522C297.212 42.7275 297.212 50.2198 297.212 65.2042V573.294C297.212 588.278 297.212 595.77 294.964 601.746C291.429 611.138 284.045 618.552 274.69 622.101C268.739 624.359 261.277 624.359 246.353 624.359H67.1657C52.2415 624.359 44.7794 624.359 38.8281 622.101C29.4738 618.552 22.0897 611.138 18.555 601.746C16.3062 595.77 16.3062 588.278 16.3062 573.294V65.2042C16.3062 50.2198 16.3062 42.7275 18.555 36.7522C22.0897 27.3601 29.4738 19.9462 38.8281 16.3972C44.7794 14.1393 52.2415 14.1393 67.1658 14.1393L76.7124 14.1393C78.9638 14.1393 80.7888 15.9718 80.7888 18.2323Z" fill="#121515"/>
<rect x="245.33" width="4.44705" height="3.72085" fill="#414141"/>
<rect x="307.588" y="63.9988" width="3.70594" height="4.46502" fill="#414141"/>
<rect x="2.22363" y="63.9988" width="3.70589" height="4.46502" fill="#414141"/>
<rect x="2.22363" y="570.034" width="3.70589" height="4.465" fill="#414141"/>
<rect x="307.588" y="570.034" width="3.70594" height="4.465" fill="#414141"/>
<rect x="63.7402" y="634.777" width="4.44707" height="3.72084" fill="#414141"/>
<path fill-rule="evenodd" clip-rule="evenodd" d="M188.259 29.7668C191.534 29.7668 194.188 27.1014 194.188 23.8135C194.188 20.5255 191.534 17.8601 188.259 17.8601C184.984 17.8601 182.33 20.5255 182.33 23.8135C182.33 27.1014 184.984 29.7668 188.259 29.7668Z" fill="#262C2D"/>
<path fill-rule="evenodd" clip-rule="evenodd" d="M188.259 27.5342C190.305 27.5342 191.965 25.8683 191.965 23.8134C191.965 21.7584 190.305 20.0925 188.259 20.0925C186.212 20.0925 184.553 21.7584 184.553 23.8134C184.553 25.8683 186.212 27.5342 188.259 27.5342Z" fill="#121515"/>
<path opacity="0.4" fill-rule="evenodd" clip-rule="evenodd" d="M188.26 23.0701C188.67 23.0701 189.002 22.7368 189.002 22.3256C189.002 21.9144 188.67 21.5811 188.26 21.5811C187.851 21.5811 187.519 21.9144 187.519 22.3256C187.519 22.7368 187.851 23.0701 188.26 23.0701Z" fill="#636F73"/>
<path fill-rule="evenodd" clip-rule="evenodd" d="M138.601 23.8133C138.601 22.5803 139.6 21.5808 140.833 21.5808H172.686C173.919 21.5808 174.918 22.5803 174.918 23.8133C174.918 25.0463 173.919 26.0458 172.686 26.0458H140.833C139.6 26.0458 138.601 25.0463 138.601 23.8133Z" fill="#262C2D"/>
</svg>
