<svg width="111" height="44" viewBox="0 0 111 44" fill="none" xmlns="http://www.w3.org/2000/svg">
<g opacity="0.9">
<path d="M20.58 2C16.94 2 14 4.90426 14 8.5C14 12.0681 16.94 14.9723 20.552 15C19.656 14.9723 18.956 14.2532 18.956 13.3681C18.956 12.483 19.684 11.7362 20.608 11.7362C24.528 11.7362 33.236 11.7362 37.072 11.7362C39.788 11.7362 42 9.55108 42 6.86812C42 4.1851 39.788 2 37.072 2L20.58 2Z" fill="white"/>
<path opacity="0.9" d="M12.58 15C8.94 15 6 17.9043 6 21.5C6 25.0681 8.94 27.9723 12.552 28C11.656 27.9723 10.956 27.2532 10.956 26.3681C10.956 25.483 11.684 24.7362 12.608 24.7362C16.528 24.7362 25.236 24.7362 29.072 24.7362C31.788 24.7362 34 22.5511 34 19.8681C34 17.1851 31.788 15 29.072 15L12.58 15Z" fill="white"/>
<path opacity="0.8" d="M7.05 28C3.15 28 -1.1365e-07 31.1277 0 35C1.12776e-07 38.8426 3.15 41.9702 7.01998 42C6.05999 41.9702 5.31 41.1958 5.31 40.2425C5.31 39.2894 6.09002 38.4851 7.08003 38.4851C11.28 38.4851 20.61 38.4851 24.72 38.4851C27.63 38.4851 30 36.1319 30 33.2426C30 30.3532 27.63 28 24.72 28L7.05 28Z" fill="white"/>
<path d="M105.744 16.4567C105.659 15.5973 105.293 14.9297 104.647 14.4539C104 13.978 103.123 13.7401 102.015 13.7401C101.262 13.7401 100.627 13.8466 100.108 14.0597C99.5898 14.2656 99.1921 14.5533 98.9151 14.9226C98.6452 15.2919 98.5102 15.711 98.5102 16.1797C98.496 16.5703 98.5777 16.9112 98.7553 17.2024C98.9399 17.4936 99.1921 17.7458 99.5117 17.9588C99.8313 18.1648 100.201 18.3459 100.62 18.5022C101.039 18.6513 101.486 18.7791 101.962 18.8857L103.922 19.3544C104.874 19.5675 105.747 19.8516 106.543 20.2067C107.338 20.5618 108.027 20.9986 108.61 21.5171C109.192 22.0355 109.643 22.6463 109.963 23.3495C110.289 24.0526 110.456 24.8587 110.463 25.7678C110.456 27.103 110.115 28.2607 109.441 29.2408C108.773 30.2138 107.807 30.9702 106.543 31.51C105.286 32.0426 103.769 32.309 101.994 32.309C100.233 32.309 98.6984 32.0391 97.3916 31.4993C96.0919 30.9595 95.0763 30.1605 94.3447 29.1023C93.6203 28.037 93.2403 26.7195 93.2048 25.1499H97.6686C97.7183 25.8814 97.9278 26.4922 98.2972 26.9823C98.6736 27.4652 99.1743 27.831 99.7993 28.0796C100.431 28.321 101.145 28.4418 101.941 28.4418C102.722 28.4418 103.4 28.3281 103.975 28.1009C104.558 27.8736 105.009 27.5576 105.328 27.1527C105.648 26.7479 105.808 26.2827 105.808 25.7571C105.808 25.2671 105.662 24.8551 105.371 24.5213C105.087 24.1875 104.668 23.9034 104.114 23.6691C103.567 23.4347 102.896 23.2216 102.1 23.0299L99.7247 22.4333C97.8852 21.9858 96.4328 21.2862 95.3675 20.3345C94.3021 19.3828 93.773 18.1009 93.7801 16.4887C93.773 15.1676 94.1246 14.0135 94.8348 13.0263C95.5521 12.0391 96.5358 11.2685 97.7858 10.7145C99.0358 10.1605 100.456 9.88354 102.047 9.88354C103.666 9.88354 105.08 10.1605 106.287 10.7145C107.502 11.2685 108.446 12.0391 109.121 13.0263C109.796 14.0135 110.144 15.157 110.165 16.4567H105.744Z" fill="#FEFEFE"/>
<path d="M90.6001 17.8203H85.9339C85.8486 17.2166 85.6746 16.6804 85.4118 16.2117C85.1491 15.7358 84.8117 15.331 84.3998 14.9972C83.9878 14.6634 83.512 14.4077 82.9722 14.2301C82.4395 14.0526 81.8607 13.9638 81.2357 13.9638C80.1064 13.9638 79.1228 14.2443 78.2847 14.8054C77.4466 15.3594 76.7968 16.1691 76.3351 17.2344C75.8735 18.2926 75.6427 19.5781 75.6427 21.0909C75.6427 22.6463 75.8735 23.9531 76.3351 25.0114C76.8039 26.0696 77.4573 26.8686 78.2954 27.4084C79.1334 27.9482 80.1029 28.2181 81.2037 28.2181C81.8216 28.2181 82.3934 28.1364 82.9189 27.973C83.4516 27.8097 83.9239 27.5718 84.3358 27.2593C84.7478 26.9397 85.0887 26.5526 85.3586 26.098C85.6356 25.6435 85.8273 25.125 85.9339 24.5426L90.6001 24.5639C90.4793 25.5654 90.1775 26.5313 89.6945 27.4617C89.2187 28.385 88.5759 29.2124 87.7662 29.9439C86.9637 30.6683 86.0049 31.2436 84.8898 31.6698C83.7819 32.0888 82.5283 32.2983 81.1292 32.2983C79.1831 32.2983 77.4431 31.858 75.909 30.9773C74.382 30.0966 73.1746 28.8218 72.2868 27.1527C71.4062 25.4837 70.9658 23.4631 70.9658 21.0909C70.9658 18.7117 71.4133 16.6875 72.3081 15.0185C73.203 13.3495 74.4175 12.0781 75.9516 11.2046C77.4857 10.3239 79.2116 9.88354 81.1292 9.88354C82.3934 9.88354 83.5653 10.0611 84.6448 10.4162C85.7314 10.7713 86.6938 11.2898 87.5319 11.9716C88.3699 12.6463 89.0518 13.4737 89.5773 14.4539C90.11 15.434 90.4509 16.5561 90.6001 17.8203Z" fill="#FEFEFE"/>
<path d="M51.8962 32.0001V10.1819H56.5092V19.8019H56.7968L64.6484 10.1819H70.1775L62.0809 19.9511L70.2734 32.0001H64.7549L58.7783 23.0299L56.5092 25.7998V32.0001H51.8962Z" fill="#FEFEFE"/>
</g>
</svg>
