<svg width="221" height="44" viewBox="0 0 221 44" fill="none" xmlns="http://www.w3.org/2000/svg">
<circle cx="16" cy="16" r="14" stroke="#7839EE" stroke-width="4"/>
<circle cx="24" cy="28" r="14" stroke="#7839EE" stroke-width="4"/>
<path d="M212.368 33.3196C210.692 33.3196 209.251 32.9645 208.043 32.2543C206.843 31.537 205.92 30.5427 205.273 29.2714C204.634 28 204.314 26.537 204.314 24.8821C204.314 23.206 204.638 21.7358 205.284 20.4716C205.937 19.2003 206.864 18.2096 208.064 17.4993C209.265 16.782 210.692 16.4233 212.347 16.4233C213.775 16.4233 215.025 16.6826 216.097 17.201C217.17 17.7195 218.018 18.4475 218.643 19.385C219.268 20.3225 219.613 21.4233 219.677 22.6875H215.394C215.273 21.8708 214.954 21.2138 214.435 20.7167C213.924 20.2124 213.253 19.9603 212.422 19.9603C211.719 19.9603 211.104 20.152 210.579 20.5356C210.06 20.912 209.655 21.4624 209.364 22.1868C209.073 22.9113 208.927 23.7884 208.927 24.8182C208.927 25.8623 209.069 26.75 209.354 27.4816C209.645 28.2131 210.053 28.7706 210.579 29.1542C211.104 29.5377 211.719 29.7294 212.422 29.7294C212.94 29.7294 213.405 29.6229 213.817 29.4098C214.236 29.1968 214.581 28.8878 214.851 28.483C215.128 28.0711 215.309 27.5775 215.394 27.0022H219.677C219.606 28.2522 219.265 29.353 218.654 30.3047C218.05 31.2493 217.216 31.988 216.15 32.5206C215.085 33.0533 213.824 33.3196 212.368 33.3196Z" fill="#101828"/>
<path d="M190.851 23.5398V33H186.313V16.6364H190.638V19.5235H190.83C191.192 18.5718 191.799 17.8189 192.652 17.265C193.504 16.7039 194.537 16.4233 195.752 16.4233C196.888 16.4233 197.879 16.6719 198.724 17.1691C199.569 17.6662 200.226 18.3765 200.695 19.2998C201.164 20.216 201.398 21.3097 201.398 22.581V33H196.86V23.3907C196.867 22.3892 196.611 21.608 196.093 21.0469C195.574 20.4787 194.861 20.1946 193.951 20.1946C193.341 20.1946 192.801 20.326 192.332 20.5888C191.871 20.8516 191.508 21.2351 191.246 21.7394C190.99 22.2365 190.858 22.8367 190.851 23.5398Z" fill="#101828"/>
<path d="M171.537 39.1365C170.961 39.1365 170.422 39.0903 169.917 38.998C169.42 38.9128 169.008 38.8027 168.682 38.6677L169.704 35.2799C170.237 35.4433 170.716 35.5321 171.142 35.5463C171.576 35.5605 171.949 35.461 172.261 35.248C172.581 35.0349 172.84 34.6727 173.039 34.1613L173.305 33.4689L167.435 16.6365H172.208L175.596 28.6535H175.766L179.186 16.6365H183.99L177.63 34.7686C177.325 35.6493 176.909 36.4163 176.384 37.0697C175.865 37.7302 175.209 38.238 174.413 38.5932C173.618 38.9554 172.659 39.1365 171.537 39.1365Z" fill="#101828"/>
<path d="M160.998 17.4567C160.913 16.5973 160.547 15.9297 159.9 15.4539C159.254 14.978 158.377 14.7401 157.269 14.7401C156.516 14.7401 155.881 14.8466 155.362 15.0597C154.844 15.2656 154.446 15.5533 154.169 15.9226C153.899 16.2919 153.764 16.711 153.764 17.1797C153.75 17.5703 153.832 17.9112 154.009 18.2024C154.194 18.4936 154.446 18.7458 154.766 18.9588C155.085 19.1648 155.454 19.3459 155.874 19.5022C156.293 19.6513 156.74 19.7791 157.216 19.8857L159.176 20.3544C160.128 20.5675 161.001 20.8516 161.797 21.2067C162.592 21.5618 163.281 21.9986 163.864 22.5171C164.446 23.0355 164.897 23.6463 165.217 24.3495C165.543 25.0526 165.71 25.8587 165.717 26.7678C165.71 28.103 165.369 29.2607 164.695 30.2408C164.027 31.2138 163.061 31.9702 161.797 32.51C160.54 33.0426 159.023 33.309 157.248 33.309C155.486 33.309 153.952 33.0391 152.646 32.4993C151.346 31.9595 150.33 31.1605 149.599 30.1023C148.874 29.037 148.494 27.7195 148.459 26.1499H152.923C152.972 26.8814 153.182 27.4922 153.551 27.9823C153.927 28.4652 154.428 28.831 155.053 29.0796C155.685 29.321 156.399 29.4418 157.195 29.4418C157.976 29.4418 158.654 29.3281 159.229 29.1009C159.812 28.8736 160.263 28.5576 160.582 28.1527C160.902 27.7479 161.062 27.2827 161.062 26.7571C161.062 26.2671 160.916 25.8551 160.625 25.5213C160.341 25.1875 159.922 24.9034 159.368 24.6691C158.821 24.4347 158.15 24.2216 157.354 24.0299L154.979 23.4333C153.139 22.9858 151.687 22.2862 150.621 21.3345C149.556 20.3828 149.027 19.1009 149.034 17.4887C149.027 16.1676 149.378 15.0135 150.089 14.0263C150.806 13.0391 151.79 12.2685 153.04 11.7145C154.29 11.1605 155.71 10.8835 157.301 10.8835C158.92 10.8835 160.334 11.1605 161.541 11.7145C162.756 12.2685 163.7 13.0391 164.375 14.0263C165.05 15.0135 165.398 16.157 165.419 17.4567H160.998Z" fill="#101828"/>
<path d="M146.12 16.6363V20.0454H136.266V16.6363H146.12ZM138.503 12.7158H143.041V27.9715C143.041 28.3905 143.105 28.7172 143.233 28.9516C143.361 29.1789 143.539 29.3387 143.766 29.431C144 29.5233 144.27 29.5695 144.576 29.5695C144.789 29.5695 145.002 29.5518 145.215 29.5162C145.428 29.4736 145.591 29.4417 145.705 29.4204L146.419 32.7975C146.191 32.8685 145.872 32.9502 145.46 33.0425C145.048 33.142 144.547 33.2023 143.958 33.2236C142.864 33.2662 141.905 33.1206 141.081 32.7868C140.264 32.453 139.629 31.9346 139.174 31.2314C138.72 30.5283 138.496 29.6405 138.503 28.5681V12.7158Z" fill="#101828"/>
<path d="M124.321 33.0001V16.6365H128.721V19.4916H128.891C129.189 18.476 129.69 17.7089 130.393 17.1905C131.096 16.6649 131.906 16.4021 132.822 16.4021C133.049 16.4021 133.295 16.4163 133.557 16.4447C133.82 16.4731 134.051 16.5122 134.25 16.5619V20.5889C134.037 20.525 133.742 20.4682 133.366 20.4184C132.989 20.3687 132.645 20.3439 132.332 20.3439C131.665 20.3439 131.068 20.4895 130.542 20.7807C130.024 21.0647 129.612 21.4625 129.307 21.9738C129.008 22.4852 128.859 23.0747 128.859 23.7423V33.0001H124.321Z" fill="#101828"/>
<path d="M113.848 33.3196C112.165 33.3196 110.716 32.9787 109.502 32.2969C108.294 31.608 107.364 30.635 106.711 29.3779C106.057 28.1137 105.73 26.6187 105.73 24.8928C105.73 23.2096 106.057 21.7323 106.711 20.461C107.364 19.1897 108.284 18.1989 109.47 17.4887C110.663 16.7785 112.062 16.4233 113.667 16.4233C114.747 16.4233 115.752 16.5973 116.682 16.9454C117.62 17.2863 118.436 17.8012 119.132 18.4901C119.836 19.179 120.382 20.0455 120.773 21.0895C121.164 22.1265 121.359 23.341 121.359 24.733V25.9794H107.542V23.1669H117.087C117.087 22.5135 116.945 21.9347 116.661 21.4304C116.377 20.9262 115.983 20.532 115.478 20.2479C114.981 19.9567 114.402 19.8111 113.742 19.8111C113.053 19.8111 112.442 19.9709 111.909 20.2905C111.384 20.603 110.972 21.0256 110.674 21.5583C110.375 22.0839 110.223 22.6698 110.216 23.3161V25.9901C110.216 26.7998 110.365 27.4993 110.663 28.0888C110.968 28.6783 111.398 29.1329 111.952 29.4525C112.506 29.7721 113.163 29.9319 113.923 29.9319C114.427 29.9319 114.889 29.8608 115.308 29.7188C115.727 29.5767 116.086 29.3637 116.384 29.0796C116.682 28.7955 116.909 28.4475 117.066 28.0356L121.263 28.3125C121.05 29.3211 120.613 30.2017 119.953 30.9546C119.299 31.7003 118.454 32.2827 117.417 32.7017C116.387 33.1137 115.198 33.3196 113.848 33.3196Z" fill="#101828"/>
<path d="M87.4067 39.1364V16.6364H91.8812V19.385H92.0836C92.2824 18.9446 92.5701 18.4972 92.9465 18.0427C93.33 17.581 93.8272 17.1975 94.438 16.8921C95.0559 16.5796 95.8229 16.4233 96.7391 16.4233C97.9323 16.4233 99.0332 16.7358 100.042 17.3608C101.05 17.9787 101.856 18.9127 102.46 20.1627C103.064 21.4056 103.366 22.9645 103.366 24.8395C103.366 26.6648 103.071 28.206 102.481 29.4631C101.899 30.7131 101.103 31.6613 100.095 32.3076C99.0935 32.9468 97.9714 33.2664 96.7285 33.2664C95.8478 33.2664 95.0985 33.1208 94.4806 32.8296C93.8698 32.5384 93.3691 32.1726 92.9785 31.7323C92.5878 31.2848 92.2895 30.8339 92.0836 30.3793H91.9451V39.1364H87.4067ZM91.8492 24.8182C91.8492 25.7912 91.9842 26.64 92.254 27.3644C92.5239 28.0888 92.9146 28.6535 93.4259 29.0583C93.9373 29.456 94.5587 29.6549 95.2903 29.6549C96.0289 29.6549 96.6539 29.4525 97.1653 29.0476C97.6766 28.6357 98.0637 28.0675 98.3265 27.3431C98.5964 26.6116 98.7313 25.7699 98.7313 24.8182C98.7313 23.8736 98.5999 23.0427 98.3371 22.3253C98.0744 21.608 97.6873 21.0469 97.1759 20.6421C96.6646 20.2373 96.036 20.0348 95.2903 20.0348C94.5516 20.0348 93.9266 20.2302 93.4153 20.6208C92.911 21.0114 92.5239 21.5654 92.254 22.2827C91.9842 23 91.8492 23.8452 91.8492 24.8182Z" fill="#101828"/>
<path d="M73.9727 16.6365L76.977 22.3574L80.0558 16.6365H84.7113L79.9706 24.8183L84.8392 33.0001H80.2049L76.977 27.3432L73.8022 33.0001H69.1147L73.9727 24.8183L69.2852 16.6365H73.9727Z" fill="#101828"/>
<path d="M51.8962 33.0001V11.1819H66.5979V14.9852H56.5092V20.184H65.8416V23.9873H56.5092V29.1968H66.6406V33.0001H51.8962Z" fill="#101828"/>
</svg>
